<svg width="519.156" height="499.351" viewBox="0 0 486.7 468.13" xmlns="http://www.w3.org/2000/svg"><defs><linearGradient id="a" x1="130.06" x2="615.65" y1="241.65" y2="241.65" gradientTransform="translate(15.714 104.29)" gradientUnits="userSpaceOnUse"><stop offset="0"/></linearGradient></defs><path d="M623.64 287.48a242.79 233.51 0 0 1-173.92 284.43 242.79 233.51 0 0 1-296.01-166.82A242.79 233.51 0 0 1 326.7 120.13a242.79 233.51 0 0 1 296.56 165.93" fill="#fff" stroke="url(#a)" transform="translate(-145.22 -111.87)"/><path d="M219.728 35.05c24.446 10.507 94.11 95.244 94.11 100.544 0 2.572-4.079 9.276-9.063 14.899-8.656 9.765-10.625 8.394-43.99-30.651-19.209-22.481-40.649-45.594-47.644-51.363-31.651-26.103-73.043.947-73.043 47.733 0 24.03 20.85 71.27 28.765 65.176 2.264-1.744 10.418-15.03 18.12-29.525l14.004-26.353 31.088 102.721c17.1 56.497 31.735 104.617 32.525 106.933 1.664 4.878-163.542-83.296-169.498-90.461-2.185-2.63 2.026-6.66 9.358-8.953 7.332-2.294 19.413-9.57 26.847-16.168l13.517-11.998-15.023-35.982c-12.437-29.787-14.64-40.96-12.795-64.894 3.85-49.953 29.574-79 69.684-78.688 12.862.1 27.73 3.268 33.038 7.039z" fill="#006ba5"/><path d="M252.256 423.798c-24.446-10.507-94.109-95.244-94.109-100.544 0-2.571 4.078-9.275 9.062-14.898 8.657-9.766 10.625-8.394 43.99 30.65 19.21 22.482 40.65 45.595 47.644 51.363 31.651 26.103 73.043-.946 73.043-47.732 0-24.03-20.85-71.27-28.765-65.176-2.264 1.744-10.418 15.03-18.12 29.525l-14.003 26.353-31.089-102.722c-17.099-56.496-31.735-104.616-32.525-106.932-1.664-4.878 163.543 83.296 169.498 90.46 2.185 2.631-2.026 6.66-9.358 8.954-7.332 2.294-19.413 9.57-26.847 16.168l-13.516 11.997 15.023 35.983c12.436 29.787 14.64 40.96 12.794 64.893-3.85 49.953-29.574 79.001-69.684 78.688-12.862-.1-27.73-3.268-33.038-7.038z"/></svg>